<svg xmlns="http://www.w3.org/2000/svg" width="18" height="20" viewBox="0 0 18 20">
  <g id="Customization_solid" transform="translate(-3 -2)">
    <path id="Path_125" data-name="Path 125" d="M20.118,18.143H18A2.931,2.931,0,0,0,15.088,16a3,3,0,1,0,0,6A2.931,2.931,0,0,0,18,19.857h2.118A.871.871,0,0,0,21,19,.822.822,0,0,0,20.118,18.143Z" fill="#7e7e7e"/>
    <path id="Path_126" data-name="Path 126" d="M10.149,18h-6.3a1.013,1.013,0,0,0,0,2h6.3a1.013,1.013,0,0,0,0-2Z" fill="#7e7e7e"/>
    <path id="Path_127" data-name="Path 127" d="M3.851,6h6.3A.939.939,0,0,0,11,5a1.006,1.006,0,0,0-.851-1h-6.3A.939.939,0,0,0,3,5,1.006,1.006,0,0,0,3.851,6Z" fill="#7e7e7e"/>
    <path id="Path_128" data-name="Path 128" d="M15.088,8A2.931,2.931,0,0,0,18,5.857h2.118A.871.871,0,0,0,21,5a.936.936,0,0,0-.882-.857H18A2.931,2.931,0,0,0,15.088,2,3.083,3.083,0,0,0,12,5,3.083,3.083,0,0,0,15.088,8Z" fill="#7e7e7e"/>
    <path id="Path_129" data-name="Path 129" d="M3.882,12.857H6A3.03,3.03,0,0,0,8.912,15,3.083,3.083,0,0,0,12,12,3.083,3.083,0,0,0,8.912,9,2.931,2.931,0,0,0,6,11.143H3.882A.871.871,0,0,0,3,12,.936.936,0,0,0,3.882,12.857Z" fill="#7e7e7e"/>
    <path id="Path_130" data-name="Path 130" d="M20.14,11H13.86A.943.943,0,0,0,13,12a1.01,1.01,0,0,0,.86,1h6.28A.943.943,0,0,0,21,12,.943.943,0,0,0,20.14,11Z" fill="#7e7e7e"/>
  </g>
</svg>
